<svg xmlns="http://www.w3.org/2000/svg" width="512" height="512" viewBox="0 0 512 512"><circle cx="256" cy="256" r="238" fill="#14191c" fill-opacity="0.38"/><path d="M 87.7085860776017,424.2914139223983 A 238 238 0 1 1 424.29141392239853,424.2914139223981" fill="none" stroke="#ffffff" stroke-opacity="0.8" stroke-width="1.5"/><line x1="110.33600307557123" y1="401.66399692442883" x2="93.36544032709409" y2="418.63455967290594" stroke="white" stroke-opacity=".94" stroke-width="3"/><text x="128.01367260523492" y="392.9863273947651" text-anchor="middle" font-family="Segoe UI, sans-serif" font-size="25" fill="#ffffff" fill-opacity=".94">0</text><line x1="87.48372116692335" y1="394.2977359476747" x2="78.2075957265705" y2="401.91045535763845" stroke="white" stroke-opacity=".6" stroke-width="1.4"/><line x1="74.7396245180451" y1="377.11431079827327" x2="64.76198917041458" y2="383.7811535945085" stroke="white" stroke-opacity=".6" stroke-width="1.4"/><line x1="63.74116437205862" y1="358.7644886280675" x2="53.15810919987837" y2="364.4212494699795" stroke="white" stroke-opacity=".6" stroke-width="1.4"/><line x1="65.68081630267494" y1="334.8327870672085" x2="43.50770752240405" y2="344.01718944397066" stroke="white" stroke-opacity=".94" stroke-width="3"/><text x="88.77780461545711" y="334.26570125808126" text-anchor="middle" font-family="Segoe UI, sans-serif" font-size="25" fill="#ffffff" fill-opacity=".94">20</text><line x1="47.387006810378466" y1="319.2820596414728" x2="35.903722781591966" y2="322.76547576852636" stroke="white" stroke-opacity=".6" stroke-width="1.4"/><line x1="42.18880887209576" y1="298.5296901995159" x2="30.419385507257005" y2="300.87077406370946" stroke="white" stroke-opacity=".6" stroke-width="1.4"/><line x1="39.04972958546108" y1="277.3677365918443" x2="27.10751286539474" y2="278.543942275799" stroke="white" stroke-opacity=".6" stroke-width="1.4"/><line x1="50" y1="256" x2="26" y2="256" stroke="white" stroke-opacity=".94" stroke-width="3"/><text x="75" y="265" text-anchor="middle" font-family="Segoe UI, sans-serif" font-size="25" fill="#ffffff" fill-opacity=".94">40</text><line x1="39.04972958546108" y1="234.63226340815578" x2="27.10751286539471" y2="233.45605772420106" stroke="white" stroke-opacity=".6" stroke-width="1.4"/><line x1="42.188808872095734" y1="213.47030980048413" x2="30.419385507256976" y2="211.1292259362906" stroke="white" stroke-opacity=".6" stroke-width="1.4"/><line x1="47.387006810378466" y1="192.71794035852724" x2="35.90372278159194" y2="189.2345242314737" stroke="white" stroke-opacity=".6" stroke-width="1.4"/><line x1="65.68081630267488" y1="177.1672129327916" x2="43.50770752240399" y2="167.98281055602948" stroke="white" stroke-opacity=".94" stroke-width="3"/><text x="88.77780461545706" y="195.73429874191885" text-anchor="middle" font-family="Segoe UI, sans-serif" font-size="25" fill="#ffffff" fill-opacity=".94">60</text><line x1="63.74116437205859" y1="153.23551137193252" x2="53.15810919987834" y2="147.57875053002056" stroke="white" stroke-opacity=".6" stroke-width="1.4"/><line x1="74.73962451804513" y1="134.8856892017267" x2="64.76198917041461" y2="128.2188464054915" stroke="white" stroke-opacity=".6" stroke-width="1.4"/><line x1="87.48372116692332" y1="117.70226405232532" x2="78.20759572657047" y2="110.0895446423616" stroke="white" stroke-opacity=".6" stroke-width="1.4"/><line x1="110.33600307557117" y1="110.33600307557123" x2="93.36544032709403" y2="93.36544032709409" stroke="white" stroke-opacity=".94" stroke-width="3"/><text x="128.0136726052349" y="137.01367260523492" text-anchor="middle" font-family="Segoe UI, sans-serif" font-size="25" fill="#ffffff" fill-opacity=".94">80</text><line x1="117.70226405232535" y1="87.48372116692329" x2="110.0895446423616" y2="78.20759572657045" stroke="white" stroke-opacity=".6" stroke-width="1.4"/><line x1="134.88568920172656" y1="74.73962451804525" x2="128.21884640549132" y2="64.7619891704147" stroke="white" stroke-opacity=".6" stroke-width="1.4"/><line x1="153.23551137193246" y1="63.74116437205862" x2="147.57875053002047" y2="53.15810919987837" stroke="white" stroke-opacity=".6" stroke-width="1.4"/><line x1="177.16721293279156" y1="65.68081630267491" x2="167.98281055602942" y2="43.50770752240402" stroke="white" stroke-opacity=".94" stroke-width="3"/><text x="186.7342987419188" y="97.77780461545709" text-anchor="middle" font-family="Segoe UI, sans-serif" font-size="25" fill="#ffffff" fill-opacity=".94">100</text><line x1="192.7179403585272" y1="47.387006810378466" x2="189.23452423147364" y2="35.903722781591966" stroke="white" stroke-opacity=".6" stroke-width="1.4"/><line x1="213.47030980048396" y1="42.18880887209579" x2="211.12922593629042" y2="30.419385507257033" stroke="white" stroke-opacity=".6" stroke-width="1.4"/><line x1="234.63226340815584" y1="39.04972958546108" x2="233.4560577242011" y2="27.10751286539471" stroke="white" stroke-opacity=".6" stroke-width="1.4"/><line x1="255.99999999999997" y1="50" x2="255.99999999999997" y2="26" stroke="white" stroke-opacity=".94" stroke-width="3"/><text x="255.99999999999997" y="84" text-anchor="middle" font-family="Segoe UI, sans-serif" font-size="25" fill="#ffffff" fill-opacity=".94">120</text><line x1="277.3677365918441" y1="39.04972958546108" x2="278.5439422757988" y2="27.10751286539471" stroke="white" stroke-opacity=".6" stroke-width="1.4"/><line x1="298.529690199516" y1="42.18880887209576" x2="300.8707740637095" y2="30.419385507257005" stroke="white" stroke-opacity=".6" stroke-width="1.4"/><line x1="319.28205964147276" y1="47.387006810378466" x2="322.76547576852624" y2="35.90372278159194" stroke="white" stroke-opacity=".6" stroke-width="1.4"/><line x1="334.8327870672085" y1="65.68081630267494" x2="344.0171894439707" y2="43.507707522404075" stroke="white" stroke-opacity=".94" stroke-width="3"/><text x="325.2657012580813" y="97.77780461545711" text-anchor="middle" font-family="Segoe UI, sans-serif" font-size="25" fill="#ffffff" fill-opacity=".94">140</text><line x1="358.76448862806745" y1="63.74116437205859" x2="364.42124946997944" y2="53.15810919987834" stroke="white" stroke-opacity=".6" stroke-width="1.4"/><line x1="377.1143107982732" y1="74.73962451804508" x2="383.7811535945084" y2="64.76198917041455" stroke="white" stroke-opacity=".6" stroke-width="1.4"/><line x1="394.2977359476747" y1="87.48372116692337" x2="401.9104553576385" y2="78.2075957265705" stroke="white" stroke-opacity=".6" stroke-width="1.4"/><line x1="401.6639969244287" y1="110.33600307557117" x2="418.6345596729059" y2="93.36544032709403" stroke="white" stroke-opacity=".94" stroke-width="3"/><text x="383.98632739476506" y="137.0136726052349" text-anchor="middle" font-family="Segoe UI, sans-serif" font-size="25" fill="#ffffff" fill-opacity=".94">160</text><line x1="424.51627883307657" y1="117.70226405232518" x2="433.7924042734294" y2="110.08954464236143" stroke="white" stroke-opacity=".6" stroke-width="1.4"/><line x1="437.26037548195484" y1="134.88568920172673" x2="447.2380108295854" y2="128.2188464054915" stroke="white" stroke-opacity=".6" stroke-width="1.4"/><line x1="448.2588356279414" y1="153.23551137193246" x2="458.84189080012163" y2="147.57875053002047" stroke="white" stroke-opacity=".6" stroke-width="1.4"/><line x1="446.3191836973251" y1="177.16721293279156" x2="468.492292477596" y2="167.9828105560294" stroke="white" stroke-opacity=".94" stroke-width="3"/><text x="423.22219538454294" y="195.7342987419188" text-anchor="middle" font-family="Segoe UI, sans-serif" font-size="25" fill="#ffffff" fill-opacity=".94">180</text><line x1="464.6129931896215" y1="192.717940358527" x2="476.096277218408" y2="189.23452423147342" stroke="white" stroke-opacity=".6" stroke-width="1.4"/><line x1="469.8111911279042" y1="213.47030980048393" x2="481.58061449274294" y2="211.1292259362904" stroke="white" stroke-opacity=".6" stroke-width="1.4"/><line x1="472.9502704145389" y1="234.6322634081558" x2="484.8924871346053" y2="233.4560577242011" stroke="white" stroke-opacity=".6" stroke-width="1.4"/><line x1="462" y1="255.99999999999994" x2="486" y2="255.99999999999994" stroke="white" stroke-opacity=".94" stroke-width="3"/><text x="437" y="264.99999999999994" text-anchor="middle" font-family="Segoe UI, sans-serif" font-size="25" fill="#ffffff" fill-opacity=".94">200</text><line x1="472.9502704145389" y1="277.3677365918443" x2="484.8924871346053" y2="278.543942275799" stroke="white" stroke-opacity=".6" stroke-width="1.4"/><line x1="469.81119112790424" y1="298.529690199516" x2="481.580614492743" y2="300.8707740637095" stroke="white" stroke-opacity=".6" stroke-width="1.4"/><line x1="464.61299318962153" y1="319.2820596414727" x2="476.0962772184081" y2="322.76547576852624" stroke="white" stroke-opacity=".6" stroke-width="1.4"/><line x1="446.3191836973251" y1="334.83278706720836" x2="468.49229247759604" y2="344.0171894439705" stroke="white" stroke-opacity=".94" stroke-width="3"/><text x="423.22219538454294" y="334.26570125808115" text-anchor="middle" font-family="Segoe UI, sans-serif" font-size="25" fill="#ffffff" fill-opacity=".94">220</text><line x1="448.2588356279414" y1="358.76448862806745" x2="458.84189080012163" y2="364.42124946997944" stroke="white" stroke-opacity=".6" stroke-width="1.4"/><line x1="437.26037548195495" y1="377.1143107982732" x2="447.2380108295855" y2="383.7811535945084" stroke="white" stroke-opacity=".6" stroke-width="1.4"/><line x1="424.5162788330766" y1="394.2977359476747" x2="433.7924042734295" y2="401.91045535763845" stroke="white" stroke-opacity=".6" stroke-width="1.4"/><line x1="401.66399692442894" y1="401.6639969244286" x2="418.6345596729061" y2="418.63455967290577" stroke="white" stroke-opacity=".94" stroke-width="3"/><text x="383.9863273947652" y="392.98632739476494" text-anchor="middle" font-family="Segoe UI, sans-serif" font-size="25" fill="#ffffff" fill-opacity=".94">240</text></svg>