<svg xmlns="http://www.w3.org/2000/svg" viewBox="0 0 180 130">
  <defs><radialGradient id="glass"><stop stop-color="#c5edaa"/><stop offset=".55" stop-color="#79ae79"/><stop offset="1" stop-color="#274d3b"/></radialGradient></defs>
  <g stroke="#a7bfb1" stroke-width="2.5" stroke-linejoin="round">
    <path d="M31 66V42q0-26 59-26t59 26v24l-11-2V44q0-16-48-16T42 44v20z" fill="#354b41"/>
    <path d="M57 56l15-28h36l15 28 30 18-6 36H33l-6-36z" fill="#354b41"/>
    <g fill="#263b32"><circle cx="90" cy="53" r="25"/><circle cx="55" cy="88" r="27"/><circle cx="125" cy="88" r="27"/></g>
    <g fill="url(#glass)"><circle cx="90" cy="53" r="17"/><circle cx="55" cy="88" r="19"/><circle cx="125" cy="88" r="19"/></g>
    <path d="M79 47q4-7 12-7M43 82q4-8 13-8M113 82q4-8 13-8" fill="none" stroke="#d3eac5" stroke-linecap="round"/>
  </g>
</svg>
