<svg xmlns="http://www.w3.org/2000/svg" viewBox="0 0 200 180">
  <defs>
    <linearGradient id="vest" x2="0" y2="1"><stop stop-color="#a996c7"/><stop offset=".45" stop-color="#67517f"/><stop offset="1" stop-color="#34273f"/></linearGradient>
    <linearGradient id="plate" x2="0" y2="1"><stop stop-color="#d3c3ea"/><stop offset="1" stop-color="#78618e"/></linearGradient>
  </defs>
  <g stroke="#c8b2e4" stroke-width="2" stroke-linejoin="round">
    <path d="M56 17h25l8 19h22l8-19h25l8 42 16 17-9 84H41l-9-84 16-17z" fill="url(#vest)"/>
    <path d="M58 17l5 43h20l-2-43M119 17v43h19l6-43" fill="#54415f"/>
    <path d="M65 60h70l8 15v55l-11 16H68l-11-16V75z" fill="url(#plate)"/>
    <path d="M71 70h58l5 11v39l-10 12H76l-10-12V81z" fill="#604773"/>
    <path d="M72 87h56M72 101h56M72 115h56" stroke="#b49acb" stroke-width="4"/>
    <path d="M39 88h17v15H37M161 88h-17v15h19M36 118h21v14H35M164 118h-21v14h22" fill="#493551"/>
    <path d="M83 45h34v11H83z" fill="#e0cfef"/>
    <path d="M45 152h110" fill="none" stroke="#ad8dc7" stroke-width="4"/>
  </g>
</svg>
